 <svg  version="1.0" xmlns="http://www.w3.org/2000/svg"  width="300.000000pt" height="100.000000pt" viewBox="0 0 300.000000 100.000000"  preserveAspectRatio="xMidYMid meet">  <g transform="translate(0.000000,100.000000) scale(0.100000,-0.100000)" fill="#ffffff" stroke="none"> <path d="M287 840 c-64 -27 -98 -50 -90 -63 3 -6 1 -7 -6 -3 -15 10 -43 -13 -34 -27 3 -5 1 -7 -5 -3 -6 3 -13 2 -17 -4 -3 -5 -1 -10 5 -10 6 0 8 -5 5 -10 -4 -6 -10 -8 -15 -5 -14 9 -41 -40 -34 -61 4 -13 3 -15 -3 -6 -7 9 -12 6 -21 -13 -15 -33 -15 -58 0 -49 7 4 8 3 4 -5 -4 -6 -12 -9 -17 -6 -5 4 -9 -2 -9 -12 0 -10 -3 -28 -6 -40 l-6 -23 186 0 186 0 0 180 0 180 -37 -1 c-21 0 -59 -9 -86 -19z m80 4 c-3 -3 -12 -4 -19 -1 -8 3 -5 6 6 6 11 1 17 -2 13 -5z m-260 -331 c-4 -3 -10 -3 -14 0 -3 4 0 7 7 7 7 0 10 -3 7 -7z m40 0 c-4 -3 -10 -3 -14 0 -3 4 0 7 7 7 7 0 10 -3 7 -7z m81 0 c-10 -2 -26 -2 -35 0 -10 3 -2 5 17 5 19 0 27 -2 18 -5z m65 0 c-7 -2 -19 -2 -25 0 -7 3 -2 5 12 5 14 0 19 -2 13 -5z"/> <path d="M555 791 c-44 -20 -70 -60 -70 -112 0 -42 5 -53 33 -81 27 -27 40 -33 76 -33 149 0 163 211 16 230 -19 3 -44 1 -55 -4z m52 -8 c-4 -3 -10 -3 -14 0 -3 4 0 7 7 7 7 0 10 -3 7 -7z m60 -20 c-4 -3 -10 -3 -14 0 -3 4 0 7 7 7 7 0 10 -3 7 -7z m20 -30 c-4 -3 -7 0 -7 7 0 7 3 10 7 7 3 -4 3 -10 0 -14z m0 -120 c-4 -3 -7 0 -7 7 0 7 3 10 7 7 3 -4 3 -10 0 -14z"/> <path d="M2740 505 c0 -122 2 -145 15 -145 12 0 15 14 15 65 0 75 14 113 46 121 60 15 84 -20 84 -122 0 -50 3 -64 15 -64 12 0 15 16 15 85 0 78 -2 88 -25 110 -28 29 -79 33 -113 9 -22 -15 -22 -15 -22 35 0 39 -4 51 -15 51 -13 0 -15 -23 -15 -145z"/> <path d="M864 625 c-13 -33 4 -45 61 -45 l56 0 -60 -88 c-34 -49 -61 -99 -61 -110 0 -21 4 -22 100 -22 100 0 100 0 100 25 0 24 -3 25 -55 25 -30 0 -55 3 -55 8 0 4 25 43 55 87 35 50 55 89 55 107 l0 28 -95 0 c-76 0 -97 -3 -101 -15z"/> <path d="M2060 625 c0 -10 11 -15 35 -15 l35 0 0 -125 c0 -118 1 -125 20 -125 19 0 20 7 20 125 l0 125 35 0 c24 0 35 5 35 15 0 12 -17 15 -90 15 -73 0 -90 -3 -90 -15z"/> <path d="M1540 605 c0 -14 -4 -25 -10 -25 -5 0 -10 -13 -10 -30 0 -16 5 -30 10 -30 6 0 10 -24 10 -54 0 -73 26 -106 81 -106 38 0 40 2 37 28 -2 19 -9 28 -25 30 -20 3 -23 9 -23 52 0 43 3 49 23 52 16 2 23 11 25 31 3 23 0 27 -22 27 -21 0 -26 5 -26 25 0 22 -4 25 -35 25 -31 0 -35 -3 -35 -25z"/> <path d="M1124 562 c-45 -36 -57 -98 -29 -152 20 -38 43 -50 98 -50 47 0 97 29 97 56 0 18 -52 19 -80 2 -15 -9 -25 -10 -37 -2 -39 25 -25 34 51 34 l76 0 0 36 c0 55 -44 94 -107 94 -30 0 -56 -7 -69 -18z m94 -44 c21 -21 13 -28 -28 -28 -22 0 -40 4 -40 8 0 14 23 32 40 32 9 0 21 -5 28 -12z"/> <path d="M1340 560 c-21 -21 -26 -55 -12 -78 5 -7 30 -21 57 -30 54 -19 71 -42 31 -42 -13 0 -28 5 -31 10 -8 13 -75 13 -75 0 0 -6 11 -22 25 -35 19 -20 34 -25 72 -25 64 0 93 21 93 66 0 36 -1 36 -93 73 -15 6 -25 16 -22 21 8 13 42 13 50 0 9 -15 65 -12 65 3 0 8 -10 23 -23 35 -31 30 -108 31 -137 2z"/> <path d="M1699 551 c-25 -25 -29 -37 -29 -81 0 -44 4 -56 29 -81 25 -24 37 -29 81 -29 41 0 56 5 75 25 14 13 25 29 25 35 0 14 -63 13 -77 -1 -15 -15 -63 -3 -63 16 0 12 15 15 75 15 74 0 75 0 75 26 0 62 -45 103 -113 104 -40 0 -53 -5 -78 -29z m109 -33 c21 -21 13 -28 -28 -28 -22 0 -40 4 -40 8 0 14 23 32 40 32 9 0 21 -5 28 -12z"/> <path d="M1910 470 l0 -110 35 0 35 0 0 63 c0 68 10 87 47 87 20 0 23 5 23 35 0 39 -13 44 -48 19 -20 -14 -22 -14 -22 0 0 12 -10 16 -35 16 l-35 0 0 -110z"/> <path d="M2320 568 c-39 -21 -64 -76 -56 -122 13 -68 73 -104 142 -84 30 8 64 40 64 60 0 16 -36 7 -48 -12 -18 -29 -85 -28 -106 2 -9 12 -16 26 -16 30 0 5 38 8 84 8 58 0 85 4 88 13 8 20 -10 72 -31 91 -25 23 -89 30 -121 14z m95 -43 c39 -38 32 -45 -45 -45 -77 0 -85 8 -48 47 28 30 63 29 93 -2z"/> <path d="M2548 564 c-36 -19 -48 -43 -48 -98 0 -80 60 -126 136 -104 30 8 64 40 64 60 0 16 -36 7 -48 -12 -12 -20 -65 -28 -88 -12 -22 15 -36 54 -30 88 11 58 79 85 113 44 18 -20 53 -28 53 -11 0 5 -14 21 -31 35 -35 30 -79 33 -121 10z"/> <path d="M420 304 l0 -187 50 6 c60 7 144 42 135 57 -3 5 0 7 7 5 19 -7 101 64 94 81 -3 8 0 13 7 11 7 -1 11 6 11 15 -1 10 2 15 7 13 12 -8 40 52 42 91 1 19 5 34 10 34 4 0 7 14 7 30 l0 30 -185 0 -185 0 0 -186z m151 158 c-46 -2 -88 1 -92 5 -5 4 33 6 84 3 l92 -5 -84 -3z m164 8 c3 -5 -1 -10 -10 -10 -9 0 -13 5 -10 10 3 6 8 10 10 10 2 0 7 -4 10 -10z m42 3 c-4 -3 -10 -3 -14 0 -3 4 0 7 7 7 7 0 10 -3 7 -7z m-90 -10 c-4 -3 -10 -3 -14 0 -3 4 0 7 7 7 7 0 10 -3 7 -7z m-242 -33 c3 -5 4 -10 1 -10 -3 0 -8 5 -11 10 -3 6 -4 10 -1 10 3 0 8 -4 11 -10z m-1 -111 c-1 -33 -6 -64 -9 -67 -7 -7 -5 108 2 121 8 14 9 6 7 -54z m303 24 c-4 -3 -7 0 -7 7 0 7 3 10 7 7 3 -4 3 -10 0 -14z m-60 -100 c-4 -3 -7 0 -7 7 0 7 3 10 7 7 3 -4 3 -10 0 -14z m-240 -70 c-4 -3 -7 0 -7 7 0 7 3 10 7 7 3 -4 3 -10 0 -14z m100 -20 c-4 -3 -10 -3 -14 0 -3 4 0 7 7 7 7 0 10 -3 7 -7z m-100 -10 c-4 -3 -10 -3 -14 0 -3 4 0 7 7 7 7 0 10 -3 7 -7z m30 -10 c-4 -3 -7 0 -7 7 0 7 3 10 7 7 3 -4 3 -10 0 -14z"/> <path d="M167 410 c-31 -25 -51 -80 -42 -119 3 -15 20 -41 36 -57 43 -42 115 -42 158 0 36 35 46 74 31 121 -17 50 -53 75 -110 75 -32 0 -55 -6 -73 -20z m-10 -37 c-4 -3 -7 0 -7 7 0 7 3 10 7 7 3 -4 3 -10 0 -14z m170 0 c-4 -3 -7 0 -7 7 0 7 3 10 7 7 3 -4 3 -10 0 -14z m-180 -59 c1 -18 -2 -23 -9 -16 -6 6 -8 18 -5 26 9 22 12 20 14 -10z m203 7 c0 -11 -4 -23 -10 -26 -6 -4 -10 5 -10 19 0 14 5 26 10 26 6 0 10 -9 10 -19z"/> </g> </svg> 