<?xml version="1.0" standalone="no"?>
<!DOCTYPE svg PUBLIC "-//W3C//DTD SVG 20010904//EN"
 "http://www.w3.org/TR/2001/REC-SVG-20010904/DTD/svg10.dtd">
<svg version="1.0" xmlns="http://www.w3.org/2000/svg"
 width="300.000000pt" height="336.000000pt" viewBox="0 0 300.000000 336.000000"
 preserveAspectRatio="xMidYMid meet">
<metadata>
Created by potrace 1.10, written by Peter Selinger 2001-2011
</metadata>
<g transform="translate(0.000000,336.000000) scale(0.100000,-0.100000)"
fill="#000000" stroke="none">
<path d="M1300 3074 c-52 -7 -99 -13 -105 -14 -5 0 -3 -5 5 -11 11 -8 8 -9
-13 -4 -16 3 -45 0 -65 -6 -106 -34 -123 -42 -110 -51 8 -5 3 -6 -14 -2 -33 7
-57 -4 -37 -18 10 -7 8 -8 -8 -3 -25 7 -125 -43 -116 -58 3 -6 1 -7 -5 -4 -15
10 -43 -3 -35 -16 3 -5 1 -7 -4 -4 -18 11 -211 -134 -205 -155 1 -5 -2 -7 -6
-4 -12 7 -44 -28 -35 -39 5 -4 3 -5 -3 -2 -13 7 -57 -36 -60 -59 -3 -20 -14
-31 -14 -14 0 7 -13 -4 -29 -24 -18 -22 -28 -44 -24 -54 4 -13 2 -14 -5 -4 -7
10 -13 7 -26 -13 -9 -14 -14 -30 -11 -36 4 -5 1 -8 -7 -7 -8 2 -12 -6 -10 -22
1 -17 -1 -21 -7 -11 -6 10 -12 5 -25 -19 -8 -18 -13 -37 -9 -43 3 -5 1 -7 -4
-4 -13 8 -26 -20 -16 -35 3 -6 1 -8 -4 -5 -10 6 -55 -81 -75 -146 -45 -148
-68 -272 -68 -364 l0 -73 665 0 665 0 0 670 0 670 -42 -1 c-24 -1 -86 -7 -138
-15z m167 -11 c-4 -3 -7 0 -7 7 0 7 3 10 7 7 3 -4 3 -10 0 -14z m-130 0 c-4
-3 -10 -3 -14 0 -3 4 0 7 7 7 7 0 10 -3 7 -7z m-260 -60 c-4 -3 -10 -3 -14 0
-3 4 0 7 7 7 7 0 10 -3 7 -7z m-360 -180 c-4 -3 -10 -3 -14 0 -3 4 0 7 7 7 7
0 10 -3 7 -7z m-480 -640 c-4 -3 -7 0 -7 7 0 7 3 10 7 7 3 -4 3 -10 0 -14z
m-20 -65 c-3 -8 -6 -5 -6 6 -1 11 2 17 5 13 3 -3 4 -12 1 -19z m-20 -85 c-4
-3 -7 0 -7 7 0 7 3 10 7 7 3 -4 3 -10 0 -14z"/>
<path d="M2045 2841 c-20 -9 -20 -9 0 -13 11 -3 7 -4 -8 -2 -39 5 -78 -6 -70
-19 3 -5 1 -7 -5 -4 -13 9 -44 -2 -37 -13 3 -5 0 -12 -6 -16 -8 -4 -9 -3 -5 4
10 16 0 15 -29 -4 -14 -9 -22 -20 -19 -25 3 -5 0 -8 -8 -7 -7 2 -12 -3 -10
-10 1 -8 -1 -11 -6 -8 -13 8 -55 -40 -47 -54 3 -6 1 -9 -5 -8 -19 5 -66 -97
-80 -173 -17 -87 -3 -176 42 -264 37 -73 47 -87 61 -78 5 3 7 2 4 -4 -9 -14
59 -77 72 -68 7 4 10 1 9 -7 -2 -7 5 -12 14 -12 10 1 16 -3 15 -9 -4 -19 124
-56 196 -56 78 -1 181 24 170 41 -4 8 0 9 11 5 9 -4 31 0 48 9 24 13 28 18 17
25 -12 8 -12 9 1 7 21 -3 62 21 55 33 -4 5 -1 8 7 7 7 -2 12 3 10 10 -1 6 5
12 14 12 10 0 14 6 10 15 -3 8 0 14 6 12 14 -3 61 86 76 145 16 63 15 161 -2
225 -17 65 -58 139 -75 135 -7 -1 -10 1 -7 6 7 12 -23 54 -35 46 -5 -3 -8 -2
-7 3 2 4 -1 9 -6 10 -5 0 -13 8 -18 17 -5 8 -15 13 -23 9 -11 -4 -13 -1 -8 12
5 15 2 17 -15 13 -13 -4 -20 -2 -19 6 1 6 -10 10 -28 9 -21 -2 -26 0 -16 6 35
22 -197 52 -244 32z m188 -18 c-7 -2 -19 -2 -25 0 -7 3 -2 5 12 5 14 0 19 -2
13 -5z m-416 -140 c-4 -3 -7 0 -7 7 0 7 3 10 7 7 3 -4 3 -10 0 -14z m710 -130
c-4 -3 -7 0 -7 7 0 7 3 10 7 7 3 -4 3 -10 0 -14z m-783 -8 c-4 -8 -8 -15 -10
-15 -2 0 -4 7 -4 15 0 8 4 15 10 15 5 0 7 -7 4 -15z m-21 -122 c3 -18 1 -35
-4 -39 -5 -3 -9 14 -9 37 0 48 6 49 13 2z m372 -421 c-3 -3 -11 0 -18 7 -9 10
-8 11 6 5 10 -3 15 -9 12 -12z m132 11 c-4 -3 -10 -3 -14 0 -3 4 0 7 7 7 7 0
10 -3 7 -7z"/>
<path d="M1505 1730 c4 -6 11 -7 17 -4 7 4 8 2 4 -5 -4 -6 -12 -9 -17 -6 -5 4
-9 -246 -9 -645 0 -399 4 -649 9 -645 5 3 13 0 17 -6 4 -7 3 -9 -4 -5 -6 3
-13 2 -17 -4 -18 -29 252 11 400 59 111 35 148 53 133 63 -9 7 -8 8 5 4 21 -7
176 70 184 91 3 7 10 13 17 13 20 0 126 91 120 102 -4 7 -2 8 5 4 13 -9 91 64
91 84 0 8 3 10 6 7 10 -10 45 34 37 46 -3 5 -1 7 5 3 12 -7 58 53 54 72 -2 7
3 11 10 10 7 -2 12 5 12 14 -1 10 2 16 6 13 12 -7 81 107 75 123 -3 7 -1 11 3
8 17 -10 94 175 120 284 27 115 32 142 38 233 l7 97 -667 0 c-449 0 -665 -3
-661 -10z m62 -6 c-3 -3 -12 -4 -19 -1 -8 3 -5 6 6 6 11 1 17 -2 13 -5z m86
-1 c-13 -2 -33 -2 -45 0 -13 2 -3 4 22 4 25 0 35 -2 23 -4z m95 0 c-10 -2 -26
-2 -35 0 -10 3 -2 5 17 5 19 0 27 -2 18 -5z m59 0 c-4 -3 -10 -3 -14 0 -3 4 0
7 7 7 7 0 10 -3 7 -7z m30 0 c-4 -3 -10 -3 -14 0 -3 4 0 7 7 7 7 0 10 -3 7 -7z
m96 0 c-13 -2 -33 -2 -45 0 -13 2 -3 4 22 4 25 0 35 -2 23 -4z m64 0 c-4 -3
-10 -3 -14 0 -3 4 0 7 7 7 7 0 10 -3 7 -7z m30 0 c-4 -3 -10 -3 -14 0 -3 4 0
7 7 7 7 0 10 -3 7 -7z m30 0 c-4 -3 -10 -3 -14 0 -3 4 0 7 7 7 7 0 10 -3 7 -7z
m106 0 c-13 -2 -35 -2 -50 0 -16 2 -5 4 22 4 28 0 40 -2 28 -4z m85 0 c-10 -2
-26 -2 -35 0 -10 3 -2 5 17 5 19 0 27 -2 18 -5z m55 0 c-7 -2 -19 -2 -25 0 -7
3 -2 5 12 5 14 0 19 -2 13 -5z m34 0 c-4 -3 -10 -3 -14 0 -3 4 0 7 7 7 7 0 10
-3 7 -7z m91 0 c-10 -2 -28 -2 -40 0 -13 2 -5 4 17 4 22 1 32 -1 23 -4z m69 0
c-4 -3 -10 -3 -14 0 -3 4 0 7 7 7 7 0 10 -3 7 -7z m40 1 c-3 -3 -12 -4 -19 -1
-8 3 -5 6 6 6 11 1 17 -2 13 -5z m40 0 c-3 -3 -12 -4 -19 -1 -8 3 -5 6 6 6 11
1 17 -2 13 -5z m30 -1 c-4 -3 -10 -3 -14 0 -3 4 0 7 7 7 7 0 10 -3 7 -7z m61
0 c-10 -2 -26 -2 -35 0 -10 3 -2 5 17 5 19 0 27 -2 18 -5z m59 1 c-3 -3 -12
-4 -19 -1 -8 3 -5 6 6 6 11 1 17 -2 13 -5z m30 -1 c-4 -3 -10 -3 -14 0 -3 4 0
7 7 7 7 0 10 -3 7 -7z m-1240 -50 c-4 -3 -7 0 -7 7 0 7 3 10 7 7 3 -4 3 -10 0
-14z m1300 0 c-4 -3 -7 0 -7 7 0 7 3 10 7 7 3 -4 3 -10 0 -14z m-1300 -40 c-4
-3 -7 0 -7 7 0 7 3 10 7 7 3 -4 3 -10 0 -14z m1290 -70 c-3 -10 -5 -2 -5 17 0
19 2 27 5 18 2 -10 2 -26 0 -35z m-20 -115 c-3 -8 -6 -5 -6 6 -1 11 2 17 5 13
3 -3 4 -12 1 -19z m-20 -85 c-4 -3 -7 0 -7 7 0 7 3 10 7 7 3 -4 3 -10 0 -14z
m-20 -60 c-4 -3 -7 0 -7 7 0 7 3 10 7 7 3 -4 3 -10 0 -14z m-20 -60 c-4 -3 -7
0 -7 7 0 7 3 10 7 7 3 -4 3 -10 0 -14z m-40 -75 c-3 -8 -6 -5 -6 6 -1 11 2 17
5 13 3 -3 4 -12 1 -19z m-690 -655 c-4 -3 -10 -3 -14 0 -3 4 0 7 7 7 7 0 10
-3 7 -7z m-100 -40 c-4 -3 -10 -3 -14 0 -3 4 0 7 7 7 7 0 10 -3 7 -7z m-380
-20 c-4 -3 -7 0 -7 7 0 7 3 10 7 7 3 -4 3 -10 0 -14z m216 -20 c-7 -2 -19 -2
-25 0 -7 3 -2 5 12 5 14 0 19 -2 13 -5z m-168 -13 c3 -5 1 -10 -4 -10 -6 0
-11 5 -11 10 0 6 2 10 4 10 3 0 8 -4 11 -10z m42 3 c-4 -3 -10 -3 -14 0 -3 4
0 7 7 7 7 0 10 -3 7 -7z"/>
<path d="M722 1533 c-23 -8 -40 -19 -37 -24 4 -5 0 -6 -7 -4 -8 3 -22 -2 -33
-11 -11 -8 -14 -12 -6 -8 9 4 12 3 7 -4 -4 -6 -13 -9 -21 -6 -19 8 -120 -91
-110 -107 5 -7 4 -10 -2 -6 -30 19 -85 -139 -85 -244 0 -79 29 -188 44 -167 7
9 8 8 4 -6 -8 -25 51 -119 71 -112 8 3 11 1 8 -4 -8 -13 17 -38 33 -32 7 2 11
-2 10 -8 -4 -15 71 -61 132 -80 57 -19 203 -19 250 -1 94 36 107 45 187 119
13 12 21 27 18 32 -4 6 -1 9 7 8 7 -2 12 5 12 14 -1 10 2 15 7 12 5 -3 22 21
36 53 22 47 28 77 31 154 3 58 0 112 -8 135 -19 62 -52 124 -63 117 -6 -3 -7
-2 -4 4 9 14 -22 55 -35 47 -7 -4 -8 -2 -4 5 4 7 -2 15 -16 20 -13 6 -19 10
-14 10 14 1 -26 36 -62 55 -17 9 -39 13 -49 10 -13 -4 -15 -3 -4 4 10 7 1 14
-35 26 -60 20 -203 20 -262 -1z m35 -10 c-4 -3 -10 -3 -14 0 -3 4 0 7 7 7 7 0
10 -3 7 -7z m210 1 c-3 -3 -12 -4 -19 -1 -8 3 -5 6 6 6 11 1 17 -2 13 -5z
m-377 -78 c0 -3 -5 -8 -12 -12 -7 -4 -8 -3 -4 4 7 12 16 16 16 8z m-113 -158
c-3 -8 -6 -5 -6 6 -1 11 2 17 5 13 3 -3 4 -12 1 -19z m770 -40 c-3 -7 -5 -2
-5 12 0 14 2 19 5 13 2 -7 2 -19 0 -25z m-790 -20 c-3 -8 -6 -5 -6 6 -1 11 2
17 5 13 3 -3 4 -12 1 -19z m13 -222 c0 -3 -4 -8 -10 -11 -5 -3 -10 -1 -10 4 0
6 5 11 10 11 6 0 10 -2 10 -4z m777 -28 c-3 -7 -5 -2 -5 12 0 14 2 19 5 13 2
-7 2 -19 0 -25z m-730 -105 c-4 -3 -7 0 -7 7 0 7 3 10 7 7 3 -4 3 -10 0 -14z
m550 -120 c-4 -3 -10 -3 -14 0 -3 4 0 7 7 7 7 0 10 -3 7 -7z m-50 -20 c-4 -3
-10 -3 -14 0 -3 4 0 7 7 7 7 0 10 -3 7 -7z m-234 -20 c-7 -2 -19 -2 -25 0 -7
3 -2 5 12 5 14 0 19 -2 13 -5z m164 1 c-3 -3 -12 -4 -19 -1 -8 3 -5 6 6 6 11
1 17 -2 13 -5z"/>
</g>
</svg>
